<svg width="20" height="16" viewBox="0 0 20 16" fill="none" xmlns="http://www.w3.org/2000/svg">
<path d="M17.9401 4.03474C17.9401 4.20424 17.9401 4.38372 17.9401 4.55322C17.9496 6.05902 17.6547 7.55166 17.0727 8.94459C16.4905 10.3375 15.6329 11.603 14.5493 12.6678C13.4657 13.7326 12.1778 14.5753 10.7602 15.1474C9.34267 15.7193 7.82362 16.0091 6.29122 15.9998C4.06102 16.0062 1.87642 15.3795 0 14.1951C0.334855 14.1951 0.649416 14.1951 1.01471 14.1951C2.85485 14.1951 4.64164 13.5876 6.08828 12.4701C5.23078 12.4625 4.39775 12.1883 3.70867 11.6868C3.0196 11.1852 2.50989 10.4821 2.25266 9.67825C2.51106 9.71873 2.77234 9.73877 3.03399 9.73807C3.3964 9.73548 3.7573 9.69201 4.10959 9.60845C3.1928 9.42459 2.36884 8.93512 1.77713 8.2228C1.18542 7.51058 0.862323 6.61928 0.862506 5.69988C1.42982 6.00738 2.06197 6.18146 2.70928 6.20838C2.13812 5.83714 1.67016 5.33183 1.3477 4.73817C1.02526 4.14452 0.858498 3.48124 0.862506 2.80832C0.863774 2.10785 1.05276 1.42005 1.41045 0.814144C2.43707 2.05816 3.71815 3.07642 5.17073 3.80298C6.62331 4.52953 8.21502 4.94819 9.84272 5.03183C9.77829 4.73007 9.7443 4.42282 9.74125 4.11451C9.71477 3.29378 9.94683 2.48503 10.4056 1.79872C10.8644 1.11239 11.5276 0.581952 12.3046 0.279805C13.0816 -0.0223328 13.9347 -0.0814399 14.7471 0.110559C15.5596 0.302559 16.2919 0.736312 16.8442 1.35257C17.7626 1.17131 18.6417 0.833887 19.4419 0.355484C19.1363 1.28593 18.4936 2.07366 17.6357 2.56902C18.4512 2.48242 19.2485 2.27395 20 1.95082C19.4435 2.74945 18.7581 3.45337 17.9706 4.03474H17.9401Z" fill="#171717"/>
</svg>
