<svg width="24" height="24" viewBox="0 0 24 24" fill="none" xmlns="http://www.w3.org/2000/svg">
<g clip-path="url(#clip0_1175_2005)">
<path d="M11.1428 23.1428C16.8235 23.1428 21.4285 18.5378 21.4285 12.8571C21.4285 7.17648 16.8235 2.57141 11.1428 2.57141C5.46219 2.57141 0.857117 7.17648 0.857117 12.8571C0.857117 18.5378 5.46219 23.1428 11.1428 23.1428Z" fill="#C3DADC"/>
<path d="M23.1428 0.857178L12.2857 14.4286L6.85712 10.3572" stroke="#39868D" stroke-width="1.5" stroke-linecap="round" stroke-linejoin="round"/>
<path d="M16.3751 3.99977C14.8422 3.09228 13.0533 2.57141 11.1428 2.57141C5.46219 2.57141 0.857117 7.17648 0.857117 12.8571C0.857117 18.5378 5.46219 23.1428 11.1428 23.1428C16.8235 23.1428 21.4285 18.5378 21.4285 12.8571C21.4285 11.5746 21.1939 10.3469 20.7649 9.21471" stroke="#39868D" stroke-width="1.5" stroke-linecap="round" stroke-linejoin="round"/>
</g>
<defs>
<clipPath id="clip0_1175_2005">
<rect width="24" height="24" fill="white"/>
</clipPath>
</defs>
</svg>
