<svg width="32" height="28" viewBox="0 0 32 28" fill="none" xmlns="http://www.w3.org/2000/svg">
<path d="M2.27601 25.7109H7.9079V11.4019H2.27601C1.9753 11.4019 1.68691 11.5213 1.47427 11.7339C1.26164 11.9466 1.14218 12.235 1.14218 12.5357V24.5769C1.14218 24.8777 1.26164 25.1659 1.47427 25.3787C1.68691 25.5913 1.9753 25.7109 2.27601 25.7109Z" fill="#F8F2EE"/>
<path d="M7.90797 11.402L13.6387 2.19528C13.8619 1.8314 14.1756 1.53151 14.5492 1.32488C14.9227 1.11823 15.3434 1.01185 15.7703 1.0161C16.1065 1.00397 16.4417 1.05935 16.7562 1.17898C17.0706 1.29862 17.3579 1.48006 17.601 1.71261C17.8441 1.94516 18.0381 2.22408 18.1716 2.53288C18.3051 2.84168 18.3753 3.17412 18.3781 3.51053V10.1094H28.333C28.701 10.1213 29.0622 10.211 29.3929 10.3725C29.7237 10.534 30.0162 10.7636 30.2519 11.0464C30.4876 11.3291 30.6606 11.6585 30.7598 12.0129C30.859 12.3673 30.8821 12.7388 30.8274 13.1027L29.0135 24.8039C28.936 25.4292 28.6329 26.0048 28.1612 26.4224C27.6892 26.8398 27.0812 27.0708 26.451 27.0715H11.5751C10.867 27.0743 10.168 26.9111 9.53425 26.5952L7.90152 25.779" fill="#FFE3B6"/>
<path d="M7.90797 11.402L13.6387 2.19528C13.8619 1.8314 14.1756 1.53151 14.5492 1.32488C14.9227 1.11823 15.3434 1.01185 15.7703 1.0161C16.1065 1.00397 16.4417 1.05935 16.7562 1.17898C17.0706 1.29862 17.3579 1.48006 17.601 1.71261C17.8441 1.94516 18.0381 2.22406 18.1716 2.53288C18.3051 2.84168 18.3753 3.17412 18.3781 3.51053V10.1094H28.333C28.701 10.1213 29.0622 10.211 29.3929 10.3725C29.7237 10.534 30.0162 10.7636 30.2519 11.0464C30.4876 11.3291 30.6606 11.6585 30.7598 12.0129C30.859 12.3673 30.8821 12.7388 30.8274 13.1027L29.0135 24.8039C28.936 25.4292 28.6329 26.0048 28.1612 26.4224C27.6892 26.8398 27.0812 27.0708 26.451 27.0715H11.5751C10.867 27.0743 10.168 26.9111 9.53425 26.5952L7.90152 25.779" stroke="#F4B143" stroke-width="1.5" stroke-linecap="round" stroke-linejoin="round"/>
<path d="M2.27601 25.7108H7.9079V11.4018H2.27601C1.9753 11.4018 1.68691 11.5212 1.47427 11.7339C1.26164 11.9465 1.14218 12.2349 1.14218 12.5356V24.5769C1.14218 24.8777 1.26164 25.1659 1.47427 25.3787C1.68691 25.5913 1.9753 25.7108 2.27601 25.7108Z" stroke="#F4B143" stroke-width="1.5" stroke-linecap="round" stroke-linejoin="round"/>
</svg>
