<svg width="32" height="33" viewBox="0 0 32 33" fill="none" xmlns="http://www.w3.org/2000/svg">
<path d="M15.9998 10.7859V11.3573C15.9998 12.7213 15.4579 14.0294 14.4935 14.9939C13.529 15.9583 12.2209 16.5002 10.8569 16.5002C9.49293 16.5002 8.18484 17.042 7.22036 18.0065C6.25588 18.971 5.71405 20.2791 5.71405 21.643V22.2145" stroke="#1883B3" stroke-width="1.5" stroke-linecap="round" stroke-linejoin="round"/>
<path d="M16 10.7859V11.3573C16 12.7213 16.5418 14.0294 17.5063 14.9939C18.4708 15.9583 19.7789 16.5002 21.1429 16.5002C22.5068 16.5002 23.8149 17.042 24.7794 18.0065C25.7438 18.971 26.2857 20.2791 26.2857 21.643V22.2145" stroke="#1883B3" stroke-width="1.5" stroke-linecap="round" stroke-linejoin="round"/>
<path d="M11.4281 9.64294V2.7858C11.4281 2.15462 11.9398 1.64294 12.571 1.64294H19.4281C20.0593 1.64294 20.571 2.15462 20.571 2.7858V9.64294C20.571 10.2741 20.0593 10.7858 19.4281 10.7858H12.571C11.9398 10.7858 11.4281 10.2741 11.4281 9.64294Z" fill="#BDE1F1"/>
<path d="M1.14218 30.2144V23.3572C1.14218 22.726 1.65386 22.2144 2.28504 22.2144H9.14218C9.77336 22.2144 10.285 22.726 10.285 23.3572V30.2144C10.285 30.8454 9.77336 31.3572 9.14218 31.3572H2.28504C1.65386 31.3572 1.14218 30.8454 1.14218 30.2144Z" fill="#BDE1F1"/>
<path d="M21.7141 30.2144V23.3573C21.7141 22.7261 22.2257 22.2144 22.8569 22.2144H29.7141C30.3451 22.2144 30.8569 22.7261 30.8569 23.3573V30.2144C30.8569 30.8455 30.3451 31.3573 29.7141 31.3573H22.8569C22.2257 31.3573 21.7141 30.8455 21.7141 30.2144Z" fill="#BDE1F1"/>
<path d="M11.4281 9.64294V2.7858C11.4281 2.15462 11.9398 1.64294 12.571 1.64294H19.4281C20.0593 1.64294 20.571 2.15462 20.571 2.7858V9.64294C20.571 10.2741 20.0593 10.7858 19.4281 10.7858H12.571C11.9398 10.7858 11.4281 10.2741 11.4281 9.64294Z" stroke="#1883B3" stroke-width="1.5" stroke-linecap="round" stroke-linejoin="round"/>
<path d="M1.14218 30.2144V23.3572C1.14218 22.726 1.65386 22.2144 2.28504 22.2144H9.14218C9.77336 22.2144 10.285 22.726 10.285 23.3572V30.2144C10.285 30.8454 9.77336 31.3572 9.14218 31.3572H2.28504C1.65386 31.3572 1.14218 30.8454 1.14218 30.2144Z" stroke="#1883B3" stroke-width="1.5" stroke-linecap="round" stroke-linejoin="round"/>
<path d="M21.7141 30.2144V23.3573C21.7141 22.7261 22.2257 22.2144 22.8569 22.2144H29.7141C30.3451 22.2144 30.8569 22.7261 30.8569 23.3573V30.2144C30.8569 30.8455 30.3451 31.3573 29.7141 31.3573H22.8569C22.2257 31.3573 21.7141 30.8455 21.7141 30.2144Z" stroke="#1883B3" stroke-width="1.5" stroke-linecap="round" stroke-linejoin="round"/>
</svg>
