<svg width="30" height="29" viewBox="0 0 30 29" fill="none" xmlns="http://www.w3.org/2000/svg">
<path d="M2.42813 16.7856V27.0713C2.42813 27.3744 2.54854 27.6651 2.76287 27.8795C2.97718 28.0937 3.26788 28.2141 3.57099 28.2141H26.4281C26.7312 28.2141 27.022 28.0937 27.2364 27.8795C27.4505 27.6651 27.571 27.3744 27.571 27.0713V16.7856" fill="#F8F2EE"/>
<path d="M2.42813 20.2141H17.2853V28.2141H2.42813V20.2141Z" fill="#FFD7D7"/>
<path d="M2.42881 13.357H27.5717C27.8748 13.357 28.1655 13.2366 28.3799 13.0222C28.5941 12.8079 28.7145 12.5172 28.7145 12.2141V7.6427H1.28595V12.2141C1.28595 12.5172 1.40636 12.8079 1.62069 13.0222C1.835 13.2366 2.1257 13.357 2.42881 13.357Z" fill="#FFD7D7"/>
<path d="M1.28595 7.6427L3.83793 2.11342C4.21153 1.30393 5.02172 0.785553 5.91326 0.785553H24.0873C24.9788 0.785553 25.789 1.30393 26.1625 2.11342L28.7145 7.6427H1.28595Z" fill="#FFD7D7"/>
<path d="M1.28595 7.6427V12.2141C1.28595 12.5172 1.40636 12.8079 1.62069 13.0222C1.835 13.2366 2.1257 13.357 2.42881 13.357H27.5717C27.8748 13.357 28.1655 13.2366 28.3799 13.0222C28.5941 12.8079 28.7145 12.5172 28.7145 12.2141V7.6427" stroke="#F85353" stroke-linecap="round" stroke-linejoin="round"/>
<path d="M17.2859 17.9284V28.2141" stroke="#F85353" stroke-linecap="round" stroke-linejoin="round"/>
<path d="M2.42813 21.357H17.2853" stroke="#F85353" stroke-linecap="round" stroke-linejoin="round"/>
<path d="M1.28595 7.6427L3.83793 2.11342C4.21153 1.30393 5.02172 0.785553 5.91326 0.785553H24.0873C24.9788 0.785553 25.789 1.30393 26.1625 2.11342L28.7145 7.6427H1.28595Z" stroke="#F85353" stroke-linecap="round" stroke-linejoin="round"/>
<path d="M2.42813 17.9285V27.0714C2.42813 27.3745 2.54854 27.6652 2.76287 27.8796C2.97718 28.0938 3.26788 28.2142 3.57099 28.2142H26.4281C26.7312 28.2142 27.022 28.0938 27.2364 27.8796C27.4505 27.6652 27.571 27.3745 27.571 27.0714V17.9285" stroke="#F85353" stroke-linecap="round" stroke-linejoin="round"/>
</svg>
