<svg width="32" height="32" viewBox="0 0 32 32" fill="none" xmlns="http://www.w3.org/2000/svg">
<circle cx="16" cy="16" r="16" fill="#171717"/>
<g clip-path="url(#clip0_1370_2653)">
<path d="M8.51957 23.3077H10.5996C10.8866 23.3077 11.1192 23.075 11.1192 22.7881V13.6963C11.1192 13.4093 10.8866 13.1768 10.5996 13.1768H8.51957C8.23257 13.1768 8 13.4093 8 13.6963V22.7881C8 23.075 8.23257 23.3077 8.51957 23.3077Z" fill="white"/>
<path d="M8.51957 11.5783H10.5996C10.8866 11.5783 11.1192 11.3457 11.1192 11.0588V9.2117C11.1192 8.92474 10.8866 8.69214 10.5996 8.69214H8.51957C8.23257 8.69214 8 8.92474 8 9.2117V11.0588C8 11.3457 8.23257 11.5783 8.51957 11.5783Z" fill="white"/>
<path d="M23.2174 14.2314C22.9252 13.8466 22.4942 13.5302 21.9243 13.2822C21.3544 13.0344 20.7254 12.9104 20.0372 12.9104C18.64 12.9104 17.4562 13.4436 16.4856 14.5102C16.2925 14.7224 16.1521 14.676 16.1521 14.389V13.6964C16.1521 13.4094 15.9195 13.1768 15.6325 13.1768H13.7744C13.4875 13.1768 13.2549 13.4094 13.2549 13.6964V22.7882C13.2549 23.0751 13.4875 23.3078 13.7744 23.3078H15.8545C16.1415 23.3078 16.374 23.0751 16.374 22.7882V19.6263C16.374 18.309 16.4536 17.4062 16.6127 16.9178C16.7717 16.4294 17.0659 16.0372 17.4951 15.7412C17.9244 15.4452 18.4091 15.2971 18.9493 15.2971C19.3711 15.2971 19.7319 15.4007 20.0317 15.608C20.3314 15.8152 20.5479 16.1055 20.6811 16.4793C20.8144 16.8531 20.8809 17.6763 20.8809 18.9492V22.7881C20.8809 23.0751 21.1135 23.3077 21.4005 23.3077H23.4805C23.7675 23.3077 24 23.0751 24 22.7881V17.6393C24 16.7291 23.9427 16.0298 23.8281 15.5414C23.7135 15.053 23.5099 14.6163 23.2174 14.2314Z" fill="white"/>
</g>
<defs>
<clipPath id="clip0_1370_2653">
<rect width="16" height="16" fill="white" transform="translate(8 8)"/>
</clipPath>
</defs>
</svg>
