<svg width="20" height="20" viewBox="0 0 20 20" fill="none" xmlns="http://www.w3.org/2000/svg">
<path d="M9.28578 19.2857C14.0197 19.2857 17.8572 15.4481 17.8572 10.7143C17.8572 5.98038 14.0197 2.14282 9.28578 2.14282C4.55191 2.14282 0.714355 5.98038 0.714355 10.7143C0.714355 15.4481 4.55191 19.2857 9.28578 19.2857Z" fill="#C3DADC"/>
<path d="M19.2858 0.714233L10.2382 12.0238L5.71436 8.6309" stroke="#39868D" stroke-width="1.5" stroke-linecap="round" stroke-linejoin="round"/>
<path d="M13.646 3.33312C12.3686 2.57688 10.8779 2.14282 9.28578 2.14282C4.55191 2.14282 0.714355 5.98038 0.714355 10.7143C0.714355 15.4481 4.55191 19.2857 9.28578 19.2857C14.0197 19.2857 17.8572 15.4481 17.8572 10.7143C17.8572 9.64551 17.6616 8.62244 17.3042 7.67891" stroke="#39868D" stroke-width="1.5" stroke-linecap="round" stroke-linejoin="round"/>
</svg>
