<svg width="32" height="32" viewBox="0 0 32 32" fill="none" xmlns="http://www.w3.org/2000/svg">
<circle cx="16" cy="16" r="16" fill="#171717"/>
<g clip-path="url(#clip0_1370_2666)">
<path d="M18.5316 14.7681C18.5753 15.1968 18.6004 15.6117 18.6004 16.0001C18.6004 16.727 18.5125 17.5479 18.3781 18.3778C17.5482 18.5122 16.7273 18.6001 16.0004 18.6001C15.2767 18.6001 14.4561 18.5124 13.6226 18.3776C13.4882 17.5476 13.4004 16.7269 13.4004 16.0001C13.4004 15.6119 13.4254 15.1969 13.4693 14.7681C14.3441 14.9081 15.2168 15.0001 16.0004 15.0001C16.7841 15.0001 17.6568 14.9081 18.5316 14.7681Z" fill="white"/>
<path d="M19.7138 14.5519C19.7679 15.0537 19.7994 15.5421 19.7994 16C19.7994 16.6681 19.7325 17.4011 19.626 18.145C21.1365 17.8298 22.5327 17.4271 23.2807 17.1979C23.5224 17.1238 23.6174 17.0943 23.7448 17.0434C23.8085 17.0179 23.8668 16.992 23.9429 16.9557C23.9802 16.6423 23.9994 16.3234 23.9994 16C23.9994 15.1452 23.8653 14.3216 23.6171 13.5493L23.5524 13.5697C22.7703 13.8076 21.3062 14.2282 19.7138 14.5519Z" fill="white"/>
<path d="M23.1629 12.4339C22.3767 12.6722 21.0122 13.0593 19.5501 13.3608C19.2132 11.3137 18.6229 9.27201 18.3389 8.34741C20.4509 8.9922 22.1919 10.4874 23.1629 12.4339Z" fill="white"/>
<path d="M18.3712 13.5789C17.5434 13.7126 16.7252 13.8 16.0004 13.8C15.2756 13.8 14.4573 13.7126 13.6296 13.5789C13.9468 11.6419 14.513 9.66328 14.8025 8.71873C14.8765 8.477 14.906 8.38205 14.957 8.25461C14.9825 8.19095 15.0084 8.13256 15.0447 8.05649C15.3581 8.01918 15.677 8 16.0004 8C16.3382 8 16.6711 8.02094 16.9979 8.06158C17.0049 8.08811 17.0113 8.11184 17.0176 8.13429C17.0363 8.20063 17.0657 8.29387 17.1149 8.45032L17.1201 8.46675C17.3668 9.25122 18.0209 11.4392 18.3712 13.5789Z" fill="white"/>
<path d="M12.4489 13.3608C12.7842 11.3227 13.3707 9.29201 13.6541 8.3671L13.6602 8.34741C11.5481 8.9922 9.80712 10.4874 8.83618 12.4339C9.62234 12.6722 10.9867 13.0593 12.4489 13.3608Z" fill="white"/>
<path d="M8.38235 13.5493C8.13408 14.3217 8 15.1452 8 16C8 16.3344 8.02052 16.664 8.06037 16.9877L8.18645 17.0297L8.18745 17.03L8.18869 17.0305L8.18955 17.0307C8.23013 17.0442 9.41947 17.437 10.9857 17.8267C11.4277 17.9366 11.8957 18.0453 12.3734 18.1449C12.2669 17.401 12.2 16.6681 12.2 16C12.2 15.542 12.2314 15.0535 12.2855 14.5519C10.6928 14.2281 9.22833 13.8074 8.44645 13.5695L8.44101 13.5678L8.38235 13.5493Z" fill="white"/>
<path d="M16.0011 19.8001C16.6692 19.8001 17.4022 19.7332 18.1461 19.6267C17.8309 21.1373 17.4283 22.5335 17.199 23.2813C17.1249 23.5231 17.0955 23.618 17.0445 23.7455C17.019 23.8092 16.9931 23.8675 16.9568 23.9437C16.6434 23.9809 16.3245 24.0001 16.0011 24.0001C15.6778 24.0001 15.3588 23.9809 15.0455 23.9437C15.0091 23.8675 14.9832 23.8092 14.9578 23.7455C14.9068 23.6181 14.8773 23.5231 14.8033 23.2814C14.574 22.5335 14.1714 21.1374 13.8562 19.627C14.5976 19.7331 15.3307 19.8001 16.0011 19.8001Z" fill="white"/>
<path d="M10.6955 18.9913C9.70506 18.7448 8.8615 18.4973 8.34692 18.3394C9.12148 20.8765 11.1232 22.8782 13.6603 23.6527L13.6543 23.6331C13.4068 22.8255 12.9283 21.1748 12.5876 19.4123C11.9252 19.2842 11.2812 19.137 10.6955 18.9913Z" fill="white"/>
<path d="M23.6326 18.3454C22.825 18.5929 21.1741 19.0715 19.4116 19.412C19.071 21.1746 18.5924 22.8254 18.3449 23.6331L18.3389 23.6527C20.876 22.8782 22.8777 20.8765 23.6522 18.3394L23.6326 18.3454Z" fill="white"/>
<path d="M8.08276 17.0081C8.11046 17.0116 8.13303 17.0154 8.14052 17.0171C8.14708 17.0187 8.15736 17.0215 8.16109 17.0225L8.16932 17.0248L8.17376 17.0262L8.17842 17.0276L8.18233 17.0289C8.18014 17.0282 8.13569 17.017 8.08276 17.0081Z" fill="white"/>
</g>
<defs>
<clipPath id="clip0_1370_2666">
<rect width="16" height="16" fill="white" transform="translate(8 8)"/>
</clipPath>
</defs>
</svg>
